<svg xmlns="http://www.w3.org/2000/svg" viewBox="0 0 64 64">
  <rect width="64" height="64" rx="14" fill="#16263f" />
  <path
    fill="#ffffff"
    d="M18 14h18.5c8.25 0 13.5 4.89 13.5 11.31 0 4.01-1.94 6.82-5.33 8.49C48.83 35.42 52 38.58 52 44c0 7.44-5.86 12-15.28 12H18V14Zm10 8v8.9h7.1c3.24 0 5.1-1.49 5.1-4.39 0-2.96-1.86-4.51-5.1-4.51H28Zm0 16.1V48h8.02c3.83 0 5.98-1.69 5.98-4.89 0-3.13-2.15-5.01-5.98-5.01H28Z"
  />
  <rect x="18" y="52" width="9" height="3.5" rx="1.75" fill="#ef2a23" />
  <rect x="28" y="52" width="9" height="3.5" rx="1.75" fill="#e0bd3d" />
  <rect x="38" y="52" width="9" height="3.5" rx="1.75" fill="#2f8d64" />
</svg>
