<svg width="1600" height="900" viewBox="0 0 1600 900" fill="none" xmlns="http://www.w3.org/2000/svg">
  <rect width="1600" height="900" fill="#2F3033"/>
  <rect width="1600" height="900" fill="url(#paint0_linear_12_4)"/>
  <circle cx="1265" cy="180" r="260" fill="url(#paint1_radial_12_4)" fill-opacity="0.45"/>
  <circle cx="350" cy="780" r="320" fill="url(#paint2_radial_12_4)" fill-opacity="0.24"/>
  <path d="M76 706C278.239 600.38 467.946 530.183 645 495.41C822.054 460.637 1007.2 445.11 1200.43 448.829C1329.58 451.314 1450.78 475.034 1564 520V900H76V706Z" fill="url(#paint3_linear_12_4)" fill-opacity="0.88"/>
  <path d="M174 676C339.968 598.567 522.843 545.751 722.625 517.552C922.408 489.353 1124.2 496.031 1328 537.586V900H174V676Z" fill="url(#paint4_linear_12_4)" fill-opacity="0.55"/>
  <g opacity="0.95">
    <rect x="250" y="325" width="170" height="240" rx="10" fill="#1F2023"/>
    <rect x="470" y="275" width="210" height="300" rx="10" fill="#242529"/>
    <rect x="730" y="220" width="230" height="355" rx="12" fill="#2B2D31"/>
    <rect x="1020" y="260" width="190" height="315" rx="10" fill="#242529"/>
    <rect x="1260" y="310" width="150" height="265" rx="10" fill="#1F2023"/>
  </g>
  <g opacity="0.8">
    <rect x="279" y="354" width="20" height="20" fill="#EF2A23"/>
    <rect x="308" y="354" width="20" height="20" fill="#6F7B8E"/>
    <rect x="337" y="354" width="20" height="20" fill="#6F7B8E"/>
    <rect x="366" y="354" width="20" height="20" fill="#6F7B8E"/>
    <rect x="279" y="384" width="20" height="20" fill="#6F7B8E"/>
    <rect x="308" y="384" width="20" height="20" fill="#FFFFFF"/>
    <rect x="337" y="384" width="20" height="20" fill="#6F7B8E"/>
    <rect x="366" y="384" width="20" height="20" fill="#6F7B8E"/>
    <rect x="512" y="310" width="24" height="24" fill="#6F7B8E"/>
    <rect x="546" y="310" width="24" height="24" fill="#EF2A23"/>
    <rect x="580" y="310" width="24" height="24" fill="#6F7B8E"/>
    <rect x="614" y="310" width="24" height="24" fill="#6F7B8E"/>
    <rect x="512" y="347" width="24" height="24" fill="#6F7B8E"/>
    <rect x="546" y="347" width="24" height="24" fill="#6F7B8E"/>
    <rect x="580" y="347" width="24" height="24" fill="#F8F8F8"/>
    <rect x="614" y="347" width="24" height="24" fill="#6F7B8E"/>
    <rect x="772" y="258" width="28" height="28" fill="#6F7B8E"/>
    <rect x="812" y="258" width="28" height="28" fill="#EF2A23"/>
    <rect x="852" y="258" width="28" height="28" fill="#6F7B8E"/>
    <rect x="892" y="258" width="28" height="28" fill="#6F7B8E"/>
    <rect x="772" y="300" width="28" height="28" fill="#6F7B8E"/>
    <rect x="812" y="300" width="28" height="28" fill="#6F7B8E"/>
    <rect x="852" y="300" width="28" height="28" fill="#F8F8F8"/>
    <rect x="892" y="300" width="28" height="28" fill="#6F7B8E"/>
    <rect x="1060" y="302" width="22" height="22" fill="#6F7B8E"/>
    <rect x="1090" y="302" width="22" height="22" fill="#6F7B8E"/>
    <rect x="1120" y="302" width="22" height="22" fill="#EF2A23"/>
    <rect x="1150" y="302" width="22" height="22" fill="#6F7B8E"/>
    <rect x="1290" y="344" width="18" height="18" fill="#6F7B8E"/>
    <rect x="1317" y="344" width="18" height="18" fill="#F8F8F8"/>
    <rect x="1344" y="344" width="18" height="18" fill="#6F7B8E"/>
  </g>
  <g opacity="0.6">
    <path d="M1038 616L1114 548L1198 624" stroke="#EF2A23" stroke-width="5"/>
    <path d="M1086 616L1162 548L1246 624" stroke="#C3B23E" stroke-width="5"/>
    <path d="M1136 616L1212 548L1296 624" stroke="#2F8D64" stroke-width="5"/>
  </g>
  <defs>
    <linearGradient id="paint0_linear_12_4" x1="800" y1="0" x2="800" y2="900" gradientUnits="userSpaceOnUse">
      <stop stop-color="#4A4A4A"/>
      <stop offset="1" stop-color="#2F3033"/>
    </linearGradient>
    <radialGradient id="paint1_radial_12_4" cx="0" cy="0" r="1" gradientUnits="userSpaceOnUse" gradientTransform="translate(1265 180) rotate(90) scale(260)">
      <stop stop-color="#EF2A23"/>
      <stop offset="1" stop-color="#EF2A23" stop-opacity="0"/>
    </radialGradient>
    <radialGradient id="paint2_radial_12_4" cx="0" cy="0" r="1" gradientUnits="userSpaceOnUse" gradientTransform="translate(350 780) rotate(90) scale(320)">
      <stop stop-color="#1F3557"/>
      <stop offset="1" stop-color="#1F3557" stop-opacity="0"/>
    </radialGradient>
    <linearGradient id="paint3_linear_12_4" x1="820" y1="448" x2="820" y2="900" gradientUnits="userSpaceOnUse">
      <stop stop-color="#414246"/>
      <stop offset="1" stop-color="#1E2024"/>
    </linearGradient>
    <linearGradient id="paint4_linear_12_4" x1="751" y1="518" x2="751" y2="900" gradientUnits="userSpaceOnUse">
      <stop stop-color="#5B5D62"/>
      <stop offset="1" stop-color="#2B2D30"/>
    </linearGradient>
  </defs>
</svg>
