<svg width="480" height="560" viewBox="0 0 480 560" fill="none" xmlns="http://www.w3.org/2000/svg">
  <rect width="480" height="560" rx="32" fill="#F3EEE6"/>
  <rect x="32" y="32" width="416" height="496" rx="26" fill="url(#paint0_linear_46_2)"/>
  <circle cx="240" cy="188" r="82" fill="#E8DDD0"/>
  <path d="M147 411C147 353.562 193.562 307 251 307H229C286.438 307 333 353.562 333 411V458H147V411Z" fill="#E8DDD0"/>
  <path d="M193 294C210.969 311.651 224.714 320.477 240 320.477C255.286 320.477 269.031 311.651 287 294" stroke="#E8DDD0" stroke-width="22" stroke-linecap="round"/>
  <rect x="84" y="468" width="104" height="10" rx="5" fill="#EF2A23"/>
  <rect x="188" y="468" width="104" height="10" rx="5" fill="#D6BF45"/>
  <rect x="292" y="468" width="104" height="10" rx="5" fill="#2F8D64"/>
  <defs>
    <linearGradient id="paint0_linear_46_2" x1="240" y1="32" x2="240" y2="528" gradientUnits="userSpaceOnUse">
      <stop stop-color="#23344A"/>
      <stop offset="1" stop-color="#172332"/>
    </linearGradient>
  </defs>
</svg>
